<svg xmlns="http://www.w3.org/2000/svg" version="1.1" xmlns:xlink="http://www.w3.org/1999/xlink" xmlns:svgjs="http://svgjs.dev/svgjs" width="1440" height="560" preserveAspectRatio="none" viewBox="0 0 1440 560"><g mask="url(&quot;#SvgjsMask1000&quot;)" fill="none"><rect width="1440" height="560" x="0" y="0" fill="#0e2a47"></rect><path d="M 0,92 C 57.6,104.6 172.8,165.4 288,155 C 403.2,144.6 460.8,25.2 576,40 C 691.2,54.8 748.8,211.6 864,229 C 979.2,246.4 1036.8,120 1152,127 C 1267.2,134 1382.4,236.6 1440,264L1440 560L0 560z" fill="#184a7e"></path><path d="M 0,301 C 96,335.4 288,470.2 480,473 C 672,475.8 768,322.4 960,315 C 1152,307.6 1344,411.8 1440,436L1440 560L0 560z" fill="#2264ab"></path></g><defs><mask id="SvgjsMask1000"><rect width="1440" height="560" fill="#ffffff"></rect></mask></defs></svg>